<?xml version="1.0" encoding="UTF-8"?>
<!DOCTYPE svg PUBLIC "-//W3C//DTD SVG 1.1//EN" "http://www.w3.org/Graphics/SVG/1.1/DTD/svg11.dtd">
<!-- Creator: CorelDRAW (Not for commercial use) -->
<svg xmlns="http://www.w3.org/2000/svg" xml:space="preserve" width="0.431874in" height="0.37011in" version="1.1" style="shape-rendering:geometricPrecision; text-rendering:geometricPrecision; image-rendering:optimizeQuality; fill-rule:evenodd; clip-rule:evenodd"
viewBox="0 0 2499 2141"
 xmlns:xlink="http://www.w3.org/1999/xlink"
 xmlns:xodm="http://www.corel.com/coreldraw/odm/2003">
 <defs>
  <style type="text/css">
   <![CDATA[
    .fil0 {fill:black}
   ]]>
  </style>
 </defs>
 <g id="Layer_x0020_1">
  <metadata id="CorelCorpID_0Corel-Layer"/>
  <path class="fil0" d="M1783 743l0 1219 -1069 0c-3,-37 -1,-354 0,-383 49,-4 202,-1 256,-1 121,0 124,-134 52,-169 -45,-22 -238,-3 -308,-10l0 -1219 1069 0c3,41 2,350 0,383 -44,3 -206,1 -256,1 -120,0 -126,133 -52,169 45,22 228,2 308,10zm-1248 -647l-1 1303c-37,3 -184,1 -226,0 7,-27 130,-110 137,-164 11,-84 -69,-119 -118,-99 -22,9 -27,16 -45,33l-225 226c-22,22 -58,47 -58,96 0,46 35,72 57,94l227 227c28,28 59,50 109,31 32,-13 62,-48 53,-100 -6,-33 -47,-68 -65,-86 -7,-7 -70,-68 -74,-78l227 -1c4,35 1,286 1,343 0,79 -19,178 48,211 27,13 63,9 97,9l1187 0c56,0 95,-36 95,-92l1 -1306 226 0c-3,13 -62,67 -75,79 -18,18 -62,56 -70,82 -26,87 78,162 153,87l229 -230c69,-70 111,-104 24,-191l-231 -232c-22,-22 -54,-58 -110,-39 -38,12 -62,49 -58,96 5,60 129,139 139,169l-226 0 -1 -464c0,-39 -12,-63 -40,-83 -29,-21 -83,-15 -128,-15l-1165 0c-58,0 -95,37 -95,95z"/>
 </g>
</svg>
